<?xml version="1.0" encoding="iso-8859-1"?>
<!-- Generator: Adobe Illustrator 19.0.0, SVG Export Plug-In . SVG Version: 6.00 Build 0)  -->
<svg version="1.1" id="Dress" xmlns="http://www.w3.org/2000/svg" xmlns:xlink="http://www.w3.org/1999/xlink" x="0px" y="0px"
	 viewBox="0 0 512 512" style="enable-background:new 0 0 512 512;" xml:space="preserve">
<g>
	<path style="fill:#FF8095;" d="M240.25,236l-11.72,29.3c-31.89,79.73-48.28,150.82-48.28,236.7c79.496,0,204.623,0,215.5,0
		c0-142.731-50.671-238.047-60-266C315.307,236,275.982,236,240.25,236z"/>
	<path style="fill:#FF8095;" d="M343.442,86.787C337.365,79.995,328.512,76,315.75,76c-10.521,0-20.404,2.715-29,7.471
		c-18.482,10.224-31,29.91-31,52.529c0-20.378-10.165-38.369-25.692-49.213C220.356,97.631,217.75,115.622,217.75,136
		c0,33.14,6.86,60,40,60c25.576,0,50.755,0,58,0c33.14,0,40-26.86,40-60C355.75,115.622,353.144,97.631,343.442,86.787z"/>
</g>
<path style="fill:#FFFFFF;" d="M175.75,196v40c35.373,0,128.292,0,160,0v-40C336.118,196,313.796,196,175.75,196z"/>
<path d="M346,462c0,5.52,4.48,10,10,10s10-4.48,10-10s-4.48-10-10-10S346,456.48,346,462z"/>
<path d="M154.995,261.586C120.652,347.446,106,419.346,106,502c0,5.523,4.478,10,10,10h280c5.522,0,10-4.477,10-10
	c0-42.86-4.054-83-12.394-122.716c-7.79-37.092-19.763-75.591-36.602-117.698L346,234.073v-37.309
	c4.488-3.53,8.243-8.055,11.229-13.589C363.213,172.083,366,157.092,366,136c0-33.201-7.238-63.887-40-69.223V10
	c0-5.523-4.478-10-10-10s-10,4.477-10,10v56.712c-21.209,3.047-39.377,15.639-50,33.268c-10.623-17.629-28.791-30.221-50-33.268V10
	c0-5.523-4.478-10-10-10s-10,4.477-10,10v56.777c-32.768,5.337-40,36.034-40,69.223c0,21.092,2.787,36.083,8.771,47.176
	c2.985,5.533,6.74,10.059,11.229,13.589v37.309L154.995,261.586z M374.034,383.395c7.401,35.248,11.307,70.876,11.889,108.605
	H126.075c1.151-75.817,15.548-143.128,47.49-222.986L182.771,246c43.536,0,98.257,0,146.458,0l9.205,23.013
	C354.839,310.033,366.483,347.448,374.034,383.395z M266,226h-20v-20h20V226z M326,206v20h-40v-20H326z M196,86
	c27.57,0,50,22.43,50,50c0,5.523,4.478,10,10,10s10-4.477,10-10c0-27.57,22.43-50,50-50c18.007,0,30,8.503,30,50s-11.993,50-30,50
	c-15.003,0-106.901,0-120,0c-18.007,0-30-8.503-30-50S177.993,86,196,86z M226,206v20h-40v-20H226z"/>
<path d="M306.866,270.865c-5.128,2.051-7.622,7.871-5.571,12.999c18.365,45.917,32.957,85.36,39.803,139.697
	c0.638,5.056,4.943,8.751,9.909,8.751c0.417,0,0.839-0.026,1.263-0.08c5.479-0.69,9.362-5.692,8.672-11.171
	c-7.144-56.694-22.172-97.356-41.076-144.624C317.813,271.307,311.992,268.815,306.866,270.865z"/>
<g>
</g>
<g>
</g>
<g>
</g>
<g>
</g>
<g>
</g>
<g>
</g>
<g>
</g>
<g>
</g>
<g>
</g>
<g>
</g>
<g>
</g>
<g>
</g>
<g>
</g>
<g>
</g>
<g>
</g>
</svg>
