<?xml version="1.0" encoding="iso-8859-1"?>
<!-- Generator: Adobe Illustrator 19.0.0, SVG Export Plug-In . SVG Version: 6.00 Build 0)  -->
<svg version="1.1" id="Hoodie" xmlns="http://www.w3.org/2000/svg" xmlns:xlink="http://www.w3.org/1999/xlink" x="0px" y="0px"
	 viewBox="0 0 512 512" style="enable-background:new 0 0 512 512;" xml:space="preserve">
<path style="fill:#7EC2DB;" d="M442,462h60c-8.09-44.46-3.15-195.6-106.05-350.09c0.02-0.07,0.03-0.14,0.05-0.21l-33.83-31.49
	H149.83l-19.963,18.582c27.787,50.102,44.132,132.42,40.675,224.815c-1.901,50.806-9.549,98.121-21.274,138.393
	c44.846,0,212.209,0,223.823,0c12.162,0,21.444-16.744,19.81-28.7c-1.885-6.916-16.201-87.535-14.46-178.47L442,462z"/>
<g>
	<rect x="442" y="462" style="fill:#FFFFFF;" width="60" height="40"/>
	<path style="fill:#FFFFFF;" d="M376,462v40H136v-40l0.07-0.31c0.93,0.2,238.93,0.2,239.86,0L376,462z"/>
	<path style="fill:#FFFFFF;" d="M362.17,80.21l-16.09-48.26L346,31.7C321.89,17.24,288.94,10,256,10s-65.89,7.24-90,21.7l-0.08,0.25
		l-16.09,48.26c-7.04,21.13,31.31,37.71,66.17,45.89c11.13,2.61,21.9,4.37,30.73,5.14c6.704,0.61,11.82,0.611,18.54,0
		C299.709,128.24,371.643,108.63,362.17,80.21z"/>
	<rect x="10" y="462" style="fill:#FFFFFF;" width="60" height="40"/>
</g>
<path d="M256,346c5.52,0,10-4.48,10-10s-4.48-10-10-10s-10,4.48-10,10S250.48,346,256,346z"/>
<path d="M10,512h60c5.522,0,10-4.478,10-10v-38.504l42.564-139.134c-3.087,35.652-8.322,70.645-13.373,107.584
	c-1.734,12.687,5.061,28.966,16.809,36.246V502c0,5.522,4.478,10,10,10h240c5.522,0,10-4.478,10-10v-33.803
	c13.092-8.107,19.178-26.9,16.609-37.292c-3.116-14.013-9.707-57.855-12.575-104.189L432,463.5V502c0,5.522,4.478,10,10,10h60
	c5.522,0,10-4.478,10-10v-40c0-0.106-0.013-0.208-0.016-0.314c-0.125-3.845-0.427,2.663-3.728-33.236
	c-2.957-32.155-7.426-80.749-21.857-136.851c-17.085-66.415-44.415-128.267-81.231-183.876c-1.493-3.443-1.133-1.804-34.317-33.096
	l-14.949-44.84c-0.593-2.708-2.348-5.219-4.757-6.664C326.279,8.212,292.49,0,256,0s-70.279,8.212-95.144,23.124
	c-2.346,1.408-4.141,3.879-4.752,6.643L141.15,74.628c-33.621,31.304-32.568,30.171-33.47,31.525
	c-37.31,55.963-64.95,118.298-82.154,185.274C11.11,347.55,6.673,396.181,3.735,428.36C0.86,459.87,0,459.509,0,462v40
	C0,507.522,4.478,512,10,512z M60,492H20v-20h40V492z M146,492v-20h220v20H146z M492,492h-40v-20h40V492z M488.34,430.282
	c0.759,8.252,1.425,15.484,2.146,21.718h-41.093l-60.915-198.55c0.865-41.557,4.881-80.408,11.967-115.852
	C472.28,255.707,482.637,368.267,488.34,430.282z M352.011,88.586c-8.797,15.758-52.279,27.005-70.273,30.283
	c13.851-29.131,30.382-52.317,58.89-71.654l12.054,36.156c0.004,0.011,0.006,0.022,0.01,0.033
	C353.121,84.702,353.326,86.23,352.011,88.586z M159.99,88.588c-1.314-2.353-1.111-3.881-0.685-5.176
	c0.006-0.018,0.011-0.036,0.016-0.054l11.901-35.695c24.383,18.054,41.291,41.264,57.553,70.918
	C210.627,115.146,168.593,103.993,159.99,88.588z M326.154,32.926c-33.651,23.859-52.118,53.161-67.648,88.726
	c-1.987,0.066-3.256,0.068-5.46-0.018c-18.808-36.383-38.382-65.923-67.807-88.448C205.176,24.727,230.095,20,256,20
	C281.641,20,306.319,24.629,326.154,32.926z M143.431,99.829c11.14,17.629,41.203,28.413,62.569,34.077V256c0,5.522,4.478,10,10,10
	s10-4.478,10-10V138.412c9.135,1.693,20.659,3.289,30,3.289c6.804,0,14.8-0.469,30-3.28V256c0,5.522,4.478,10,10,10s10-4.478,10-10
	V133.915c21.366-5.668,51.429-16.455,62.57-34.086l16.33,15.2c-9.966,41.957-15.5,88.892-16.457,139.609
	c0,0.03-0.001,0.059-0.001,0.089c0,0.033-0.002,0.065-0.002,0.098c-1.171,61.852,4.616,115.872,9.341,148.758
	C347.905,395.489,326,367.944,326,336c0-5.522-4.478-10-10-10h-20c-5.522,0-10,4.478-10,10s4.478,10,10,10h10.552
	c4.415,39.841,34.887,72.156,74.565,78.763c0.846,4.869,1.541,8.484,1.914,10.216c0.682,6.508-4.378,15.888-9.197,16.933
	c-0.274,0.06-0.519,0.088-0.744,0.088H138.91c-0.226,0-0.47-0.028-0.721-0.082c-4.924-1.068-10.072-10.749-9.182-17.264
	c0.448-3.278,0.899-6.536,1.349-9.793c39.753-6.403,70.621-38.945,75.087-78.861H216c5.522,0,10-4.478,10-10s-4.478-10-10-10h-20
	c-5.522,0-10,4.478-10,10c0,32.389-22.341,60.088-52.735,67.837c6.991-50.667,13.144-99.282,11.912-153.919
	c-0.988-44.494-6.902-88.688-18.063-134.9L143.431,99.829z M111.636,137.157c8.062,37.618,12.488,74.007,13.468,110.535L62.602,452
	H21.51C27.786,397.507,30.005,271.134,111.636,137.157z"/>
<g>
</g>
<g>
</g>
<g>
</g>
<g>
</g>
<g>
</g>
<g>
</g>
<g>
</g>
<g>
</g>
<g>
</g>
<g>
</g>
<g>
</g>
<g>
</g>
<g>
</g>
<g>
</g>
<g>
</g>
</svg>
