<?xml version="1.0" encoding="UTF-8" standalone="no"?> <svg id="Offers" data-name="Offers" xmlns="http://www.w3.org/2000/svg" viewBox="0 0 128 128"><defs><style>.cls-1{fill:#000;}</style></defs><title>n</title><path class="cls-1" d="M73.18732,80.98979a3.15019,3.15019,0,0,0-3.09825-4.172,7.41442,7.41442,0,0,0-7.31694,6.3705,3.15591,3.15591,0,0,0,3.181,3.64787A7.37207,7.37207,0,0,0,73.18732,80.98979Zm0,0a3.15019,3.15019,0,0,0-3.09825-4.172,7.41442,7.41442,0,0,0-7.31694,6.3705,3.15591,3.15591,0,0,0,3.181,3.64787A7.37207,7.37207,0,0,0,73.18732,80.98979ZM67.9967,122.57412l55.9381-64.51554a5.7309,5.7309,0,0,0,1.18625-5.03993L123.4552,13.31659a11.961,11.961,0,0,0-8.90848-8.84484L74.51786,2.99265a5.73912,5.73912,0,0,0-4.99961,1.19686L5.3019,59.87932a7.25134,7.25134,0,0,0-.46049,10.6762l52.47911,52.47911A7.25132,7.25132,0,0,0,67.9967,122.57412ZM108.29505,19.581a10.28769,10.28769,0,1,1-14.549,0A10.28855,10.28855,0,0,1,108.29505,19.581ZM49.78712,45.79506A12.77414,12.77414,0,0,1,61.293,35.66849a8.34808,8.34808,0,0,1,9.161,9.28411c-.713,6.83308-7.38487,12.01522-13.99937,10.87567A8.31845,8.31845,0,0,1,49.78712,45.79506Zm-4.78317,25.2358c-1.95446.44776-2.31307.225-2.7778-1.71676-.71939-3.11735-.72787-3.13433,2.32791-3.83883q19.39481-4.44683,38.79594-8.883c1.64885-.37985,2.07325-.09551,2.46158,1.50665.20585.77458.38622,1.5364.55176,2.26217-.1167,1.08438-.85732,1.38784-1.70616,1.57457-4.64735,1.0653-9.31169,2.13484-13.95693,3.198Q57.85,68.07165,45.00395,71.03086ZM64.42522,91.8103a8.08953,8.08953,0,0,1-6.74183-8.90215c.46474-7.07713,7.79016-12.61152,14.50868-10.99874a8.08059,8.08059,0,0,1,6.24316,8.24217C78.19756,87.29026,71.34536,93.00506,64.42522,91.8103Zm5.66385-14.99252a7.41442,7.41442,0,0,0-7.31694,6.3705,3.15591,3.15591,0,0,0,3.181,3.64787,7.37207,7.37207,0,0,0,7.23416-5.84636A3.15019,3.15019,0,0,0,70.08907,76.81778ZM61.92118,40.84636a7.26552,7.26552,0,0,0-7.08988,6.55512,3.02038,3.02038,0,0,0,3.08553,3.43778,7.45886,7.45886,0,0,0,7.35938-6.014C65.59875,42.35942,64.39977,40.91852,61.92118,40.84636ZM73.18732,80.98979a3.15019,3.15019,0,0,0-3.09825-4.172,7.41442,7.41442,0,0,0-7.31694,6.3705,3.15591,3.15591,0,0,0,3.181,3.64787A7.37207,7.37207,0,0,0,73.18732,80.98979Zm0,0a3.15019,3.15019,0,0,0-3.09825-4.172,7.41442,7.41442,0,0,0-7.31694,6.3705,3.15591,3.15591,0,0,0,3.181,3.64787A7.37207,7.37207,0,0,0,73.18732,80.98979Z"/></svg>