<?xml version="1.0" encoding="UTF-8" standalone="no"?> <svg id="Layer_1" data-name="Layer 1" xmlns="http://www.w3.org/2000/svg" viewBox="0 0 24 24"><title>mobile, phone, smartphone, history, Time</title><path d="M21.91,14.47a5,5,0,1,1-5.42-4.92l-1.06,1.07,1.4,1.4,3.51-3.51L16.83,5l-1.4,1.4,1.13,1.14a6.95,6.95,0,1,0,7.34,6.93Z"/><polygon points="15.96 17.45 17.94 17.45 17.94 14.88 19.64 13.18 18.23 11.78 15.96 14.06 15.96 17.45"/><path d="M15,22H6.12A.12.12,0,0,1,6,21.88V2.12A.12.12,0,0,1,6.12,2H8V3.31A1.69,1.69,0,0,0,9.69,5h4.62A1.69,1.69,0,0,0,16,3.31V2h1.88a.12.12,0,0,1,.12.12V5h2V2.12A2.12,2.12,0,0,0,17.88,0H6.12A2.12,2.12,0,0,0,4,2.12V21.88A2.12,2.12,0,0,0,6.12,24H17.88A2.12,2.12,0,0,0,20,22H15ZM10,2h4V3H10Z"/></svg>