<?xml version="1.0" encoding="iso-8859-1"?>
<!-- Generator: Adobe Illustrator 19.0.0, SVG Export Plug-In . SVG Version: 6.00 Build 0)  -->
<svg version="1.1" id="Puffer_Jacket" xmlns="http://www.w3.org/2000/svg" xmlns:xlink="http://www.w3.org/1999/xlink" x="0px" y="0px"
	 viewBox="0 0 512 512" style="enable-background:new 0 0 512 512;" xml:space="preserve">
<g>
	<path style="fill:#7EC2DB;" d="M340.068,102.546c-1.573-6.361-2.782-11.25-3.318-13.416c-15.29-1.38-28.72-4.39-40-8.84V70
		l-3.59,1.44c-20.083,8.033-38.282,17.611-54.719,28.571c5.189,20.98,15.476,62.576,17.309,69.989
		C265.264,162.389,313.636,123.691,340.068,102.546z"/>
	<path style="fill:#7EC2DB;" d="M487.667,268.6c-14.001-54.037-39.165-102.215-78.964-140.161
		c-15.601-14.875-33.442-28.183-53.752-39.648l0.8,1.21c-2.637,2.11-8.306,6.645-15.682,12.546
		c-26.432,21.146-74.804,59.843-84.318,67.454c-1.833-7.413-12.12-49.009-17.309-69.989c-25.306,16.874-46.398,37.051-63.691,59.964
		V462c19.435,0,50.782,0,82,0c46.889,0,93.489,0,99,0c11.05,0,20-8.95,20-20c0-15.108,0-138.985,0-155.38
		c0-11.31,0.58-22.48,1.68-33.51c8.68,13.39,15.2,26.22,20.16,38.58c10.62,26.43,14.1,50.7,16.25,73.7
		c2.11,22.46,2.94,43.72,7.91,64.61h55h25v-52C500.992,339.91,496.597,303.065,487.667,268.6z"/>
</g>
<g>
	<rect x="452.75" y="430" style="fill:#3A426B;" width="49" height="40"/>
	<polygon style="fill:#3A426B;" points="355.75,462 355.75,502 201.75,502 201.75,462 278.75,462 	"/>
</g>
<g>
	<path style="fill:#FFFFFF;" d="M354.95,88.79l0.8,1.21l-50,40l-50,40c26.47-39.7,45.92-83.66,57.49-129.96L315.75,30l39.19,58.79
		H354.95z"/>
	<path style="fill:#FFFFFF;" d="M269.75,74.13V35c0,0,0-0.52,0-1.21c-23.31-2.68-40-10.08-40-18.79c0-1.069,0.258-2.119,0.742-3.142
		C209.978,15.035,195.75,21.96,195.75,30c0,8.71,16.69,16.11,40,18.79c0,0.69,0,1.21,0,1.21v39.13l10.1,40.84l9.9,40.03
		c9.781-14.67,18.597-29.924,26.417-45.661l-2.317-9.37L269.75,74.13z"/>
</g>
<path style="fill:#3A426B;" d="M315.75,30c0-11.05-26.86-20-60-20c-9.026,0-17.579,0.668-25.258,1.858
	c-0.485,1.024-0.742,2.073-0.742,3.142c0,8.71,16.69,16.11,40,18.79c0,0.69,0,1.21,0,1.21v39.13l10.1,40.84l2.317,9.37
	c13.344-26.85,23.778-55.108,31.073-84.299L315.75,30z"/>
<path style="fill:#FFFFFF;" d="M235.75,50v39.13c-15.29-1.38-28.72-4.39-40-8.84V70V30c0,8.71,16.69,16.11,40,18.79
	C235.75,49.48,235.75,50,235.75,50z"/>
<rect x="50.75" y="430" style="fill:#3A426B;" width="39" height="40"/>
<path d="M336,360c-5.52,0-10,4.48-10,10s4.48,10,10,10s10-4.48,10-10S341.52,360,336,360z"/>
<path d="M510.654,347.756c-6.036-84.329-32.095-165.781-93.3-225.082c-16.248-15.77-34.797-29.683-55.152-41.393l-36.58-54.874
	C321.788,8.203,288.759,0,256,0c-34.843,0-70,9.276-70,30v33.269C57.812,115.85,4.431,229.828,0.005,366.677
	C0.002,366.784,0,366.892,0,367v63v40c0,5.523,4.477,10,10,10h80c5.523,0,10-4.477,10-10v-38.874
	c3.877-16.78,5.155-33.285,6.498-50.734c0.356-4.626,0.725-9.409,1.143-14.161c1.926-21.778,5.094-45.42,15.145-70.734
	c1.013-2.554,2.094-5.081,3.214-7.597V442c0,13.036,8.361,24.152,20,28.28V502c0,5.523,4.477,10,10,10h200c5.522,0,10-4.477,10-10
	v-31.72c11.639-4.128,20-15.243,20-28.28V289.359c0.883,2.009,1.744,4.025,2.561,6.059c20.362,50.672,13.306,91.811,23.439,135.708
	V470c0,5.523,4.478,10,10,10h80c5.522,0,10-4.477,10-10c0-13.027,0-78.962,0-92c0-0.066-0.001-0.132-0.002-0.199
	C511.795,367.577,511.343,357.47,510.654,347.756z M430.111,420c-2.851-15.005-3.919-30.498-5.268-46.526l66.531-13.036
	c0.291,5.807,0.508,11.705,0.627,17.661V420H430.111z M387.994,250.711c1.171-10.679,2.886-21.568,5.125-32.495l59.911-13.972
	c9.167,17.713,16.793,37.037,22.74,57.656l-72.082,18.02C399.259,270.021,394.076,260.377,387.994,250.711z M266,280v-60.1h106.385
	c-4.011,21.212-5.922,40.774-6.301,60.1H266z M156,452c-5.514,0-10-4.486-10-10v-62h100v72H156z M107.611,280.033l-72.214-18.047
	c5.776-20.277,13.181-39.286,22.08-56.721l61.092,13.158c2.25,10.644,3.997,21.191,5.219,31.476
	C117.48,259.877,112.139,269.826,107.611,280.033z M20,420v-52.837c0.072-2.19,0.171-4.38,0.268-6.568l66.693,13.063
	c-0.137,1.748-0.272,3.487-0.404,5.198c-1.099,14.281-2.154,27.897-4.656,41.144H20z M88.788,353.636l-67.239-13.17
	c1.737-20.677,4.722-40.485,8.92-59.096l69.81,17.447C93.734,318.239,90.668,336.479,88.788,353.636z M192.33,89.592
	c10.443,4.12,22.413,7.033,35.637,8.71L233.333,120h-106.2c17.781-13.933,37.811-25.781,59.836-35.422
	C188.034,86.822,189.921,88.642,192.33,89.592z M357.416,101.674c9.288,5.62,18.13,11.749,26.492,18.326h-49.4L357.416,101.674z
	 M309.508,139.9h86.038c-7.967,20.861-14.185,40.759-18.849,60.1H266v-25.194L309.508,139.9z M238.279,140L246,171.218V200H134.848
	c-4.756-19.113-11.065-38.905-19.135-60H238.279z M146,360v-60h100v60H146z M145.925,280c-0.361-17.817-2.037-36.581-6.627-60H246
	v60H145.925z M480.773,281.265c4.276,18.589,7.357,38.386,9.207,59.065l-67.075,13.143c-1.969-17.109-5.14-35.321-11.805-54.79
	L480.773,281.265z M442.76,186.102l-44.553,10.391c4.128-15.69,9.337-31.781,15.74-48.618
	C424.616,159.558,434.255,172.347,442.76,186.102z M291.326,128.933c11.906-23.921,21.525-48.913,28.766-74.766l22.5,33.753
	L291.326,128.933z M256,20c28.745,0,45.708,6.813,49.586,10.425l-1.797,7.191c-9.433,37.744-24.129,73.655-43.75,107.065L246,87.91
	V48.79c0-5.081-3.811-9.354-8.858-9.935c-17.273-1.986-26.902-6.286-30.222-8.867C211.631,26.292,228.382,20,256,20z M226,57.459
	v20.388c-7.201-1.113-13.885-2.653-20-4.607v-3.043c0-0.015,0-0.031,0-0.046V52.039C211.595,54.299,218.292,56.124,226,57.459z
	 M97.229,147.672c6.562,17.199,11.902,33.471,16.137,49.171l-45.675-9.837C76.369,172.821,86.249,159.66,97.229,147.672z M80,460H20
	v-20h60V460z M346,492H166v-20h180V492z M356,452h-90v-72h30c5.522,0,10-4.477,10-10s-4.478-10-10-10h-30v-60h100v142
	C366,447.514,361.514,452,356,452z M492,460h-60v-20h60V460z"/>
<g>
</g>
<g>
</g>
<g>
</g>
<g>
</g>
<g>
</g>
<g>
</g>
<g>
</g>
<g>
</g>
<g>
</g>
<g>
</g>
<g>
</g>
<g>
</g>
<g>
</g>
<g>
</g>
<g>
</g>
</svg>
