<?xml version="1.0" encoding="iso-8859-1"?>
<!-- Generator: Adobe Illustrator 19.0.0, SVG Export Plug-In . SVG Version: 6.00 Build 0)  -->
<svg version="1.1" id="Trench_Coat" xmlns="http://www.w3.org/2000/svg" xmlns:xlink="http://www.w3.org/1999/xlink" x="0px" y="0px"
	 viewBox="0 0 511.999 511.999" style="enable-background:new 0 0 511.999 511.999;" xml:space="preserve">
<path style="fill:#F5665D;" d="M398.598,80.261c-1.78-6.42-6.63-11.52-12.95-13.63L354.366,56.21l-148.897,0.341h-0.01l-30.26,10.08
	c-6.31,2.11-11.16,7.21-12.94,13.63c0,0,51.73,156.379,60.41,182.429c1.57,4.709,1.427,9.843-0.42,14.46
	c-12.27,30.67-21.56,64.79-27.77,99.489c-6.22,34.71-9.37,70.01-9.37,103.039c30.766,11.932,62.877,19.073,95.259,21.437
	c32-2.328,63.748-9.315,94.199-20.987l1.18-0.45c0-33.03-3.15-68.33-9.37-103.039c-6.22-34.7-15.51-68.82-27.77-99.489
	c-1.837-4.592-2.022-9.653-0.42-14.46c8.68-26.03,15.59-49.25,21.07-68.89c11.098,23.275,20.76,43.731,29.189,62.053
	c32.325,70.266,46.448,109.038,53.301,154.146l45.376-15.125l14.624-4.875L398.598,80.261z"/>
<path style="fill:#FFFFFF;" d="M206.036,130c0-22.75,18.52-37.99,20-40l-22.11-11.06c-9.46-4.73-15.94-13.51-16.17-22.39
	c-0.13-4.96,1.69-9.96,6.03-14.3l32.25-32.25h-30.287l-32.25,32.25c-4.34,4.34-6.16,9.34-6.03,14.3
	c0.23,8.88,6.71,17.66,16.17,22.39l22.11,11.06c-1.48,2.01-20,17.25-20,40c0,34.65,48.77,64.39,72.71,76.35l7.29,3.65l7.29-3.65
	c2.393-1.196,5.037-2.572,7.853-4.11C245.539,188.392,206.036,161.186,206.036,130z"/>
<path style="fill:#FFBF4E;" d="M335.748,130c0-22.75-18.52-37.99-20-40l22.11-11.06c9.62-4.81,16.16-13.8,16.18-22.84
	c0.01-4.81-1.83-9.64-6.04-13.85l-32.25-32.25h-89.713l-32.25,32.25c-4.34,4.34-6.16,9.34-6.03,14.3
	c0.23,8.88,6.71,17.66,16.17,22.39l22.11,11.06c-1.48,2.01-20,17.25-20,40c0,31.186,39.504,58.392,64.857,72.24
	C296.244,188.392,335.748,161.186,335.748,130z"/>
<path style="fill:#FFFFFF;" d="M195.749,10.001c6.59,52.7,24.58,103.329,52.73,148.369l7.27,11.63l7.27-11.63
	c5.499-8.802,10.573-17.756,15.232-26.832c-19.471-37.94-32.191-79.066-37.502-121.537
	C217.115,10.001,196.795,10.001,195.749,10.001z"/>
<path style="fill:#3A426B;" d="M240.749,10.001c5.311,42.472,18.032,83.597,37.502,121.537
	c20.002-38.969,32.322-80.213,37.498-121.537C313.392,10.001,273.822,10.001,240.749,10.001z"/>
<path d="M295.998,240c-5.52,0-10,4.48-10,10s4.48,10,10,10s10-4.48,10-10S301.518,240,295.998,240z"/>
<path d="M295.998,299.999c-5.52,0-10,4.48-10,10s4.48,10,10,10s10-4.48,10-10S301.518,299.999,295.998,299.999z"/>
<path d="M295.998,359.999c-5.52,0-10,4.48-10,10s4.48,10,10,10s10-4.48,10-10S301.518,359.999,295.998,359.999z"/>
<path d="M295.998,419.999c-5.52,0-10,4.48-10,10s4.48,10,10,10s10-4.48,10-10S301.518,419.999,295.998,419.999z"/>
<path d="M255.998,278c-5.52,0-10,4.48-10,10s4.48,10,10,10c5.52,0,10-4.48,10-10S261.518,278,255.998,278z"/>
<path d="M215.999,240c-5.52,0-10,4.48-10,10s4.48,10,10,10c5.52,0,10-4.48,10-10S221.519,240,215.999,240z"/>
<path d="M215.999,299.999c-5.52,0-10,4.48-10,10s4.48,10,10,10c5.52,0,10-4.48,10-10S221.519,299.999,215.999,299.999z"/>
<path d="M215.999,359.999c-5.52,0-10,4.48-10,10s4.48,10,10,10c5.52,0,10-4.48,10-10S221.519,359.999,215.999,359.999z"/>
<path d="M215.999,419.999c-5.52,0-10,4.48-10,10s4.48,10,10,10c5.52,0,10-4.48,10-10S221.519,419.999,215.999,419.999z"/>
<path d="M361.8,221.917c44.134,93.231,62.362,137.258,70.311,189.583c0.443,2.917,2.151,5.488,4.667,7.028
	c2.521,1.542,5.589,1.888,8.381,0.957l60-20c5.239-1.746,8.07-7.408,6.326-12.646L408.408,77.319
	c-2.73-9.505-9.943-17.035-19.35-20.175l-25.781-8.588c-1.347-4.908-4.028-9.446-7.958-13.376l-31.36-31.361
	c-1.826-2.316-4.649-3.81-7.826-3.818c-0.098-0.001-0.195-0.001-0.293,0H195.999c-0.029,0-0.056,0.004-0.085,0.005
	c-2.69,0.022-5.26,1.196-6.986,2.924l-32.25,32.25c-4.07,4.071-6.796,8.777-8.092,13.87l-24.309,8.097
	c-9.385,3.139-16.588,10.658-19.323,20.15L0.525,386.802c-0.85,2.519-0.662,5.273,0.522,7.653c1.185,2.38,3.268,4.19,5.791,5.031
	l60,20c2.792,0.931,5.86,0.585,8.381-0.957c2.516-1.54,4.224-4.111,4.667-7.028c7.806-51.38,27.021-95.587,71.666-189.609
	c4.388,14.697,9.031,29.406,13.88,43.961c0.825,2.472,0.748,5.168-0.218,7.583c-12.216,30.535-21.747,64.666-28.329,101.439
	c-6.232,34.779-9.527,71.02-9.527,104.803c0,4.127,2.536,7.831,6.384,9.323c39.132,15.176,80.258,22.913,122.257,22.997h0.67
	c41.764,0,82.72-7.581,121.71-22.525c4.928-2.242,7.619-4.055,7.619-9.794c0-33.785-3.294-70.025-9.527-104.803
	c-6.592-36.779-16.123-70.907-28.329-101.439c-0.962-2.403-1.069-5.027-0.218-7.583C352.812,251.196,357.402,236.661,361.8,221.917z
	 M344.288,56.079c-0.011,5.064-4.392,10.787-10.654,13.918c-23.178,11.671-22.175,10.925-23.628,12.014
	c5.473-16.646,9.784-33.702,12.889-50.97C339.488,48.558,344.3,50.112,344.288,56.079z M205.673,92.477
	c16.666,46.042,36.99,74.48,40.326,80.392v20.796c-30.209-16.338-60-40.546-60-63.665c0-18.324,15.79-30.999,18.052-34.07
	C204.822,94.884,205.358,93.707,205.673,92.477z M265.998,172.868c3.3-5.838,23.811-34.647,40.354-80.287
	c0.719,2.689,2.071,4.049,3.927,5.92c3.888,3.92,15.72,15.849,15.72,31.499c0,23.117-29.788,47.33-60,63.671v-20.803H265.998z
	 M304.484,20.001c-7.342,46.517-23.776,90.99-48.486,131.119c-24.52-39.816-41.165-84.883-48.485-131.119
	C207.514,20.001,304.484,20.001,304.484,20.001z M170.82,49.322l18.283-18.283c3.117,17.26,7.467,34.334,12.971,51.033
	c-1.472-1.127-0.463-0.364-23.712-12.076C170.253,65.942,163.639,56.502,170.82,49.322z M329.572,280.862
	c11.703,29.276,20.859,62.094,27.212,97.541c5.603,31.266,8.747,63.727,9.162,94.347c-32.198,11.702-65.75,18.111-99.948,19.097
	V329.999c0-5.523-4.477-10-10-10c-5.523,0-10,4.477-10,10v161.806c-33.747-1.112-66.839-7.487-98.592-19.034
	c0.415-30.626,3.563-63.098,9.167-94.37c6.343-35.444,15.498-68.26,27.211-97.537c2.813-7.032,2.866-14.605,0.623-21.335
	c-22.459-67.406-32.94-115.303-37.38-132.085c-1.412-5.339-6.885-8.52-12.225-7.11c-5.339,1.413-8.522,6.886-7.11,12.225
	c2.585,9.769,7.317,30.555,15.524,60.311C94.258,295.577,71.997,343.961,62.091,396.822l-39.407-13.136l101.3-300.228
	c0.059-0.173,0.112-0.348,0.161-0.524c0.891-3.211,3.312-5.76,6.465-6.815l20.236-6.741c3.614,7.608,10.151,14.298,18.569,18.507
	l10.354,5.179c-6.424,8.191-13.77,20.851-13.77,36.937c0,41.706,54.716,73.543,78.233,85.291l1.767,0.885V250
	c0,5.523,4.477,10,10,10c5.523,0,10-4.477,10-10v-33.823l1.759-0.881c55.473-27.714,102.76-73.407,64.471-122.232l10.352-5.178
	c8.606-4.303,15.207-11.13,18.767-18.893l21.384,7.123c3.167,1.058,5.59,3.606,6.481,6.817c0.045,0.164,0.095,0.326,0.148,0.487
	l99.99,300.253l-39.426,13.142c-9.87-53.64-31.129-101.83-79.783-203.946c8.22-29.795,13.026-50.872,15.524-60.312
	c1.413-5.339-1.771-10.812-7.11-12.225c-5.347-1.414-10.813,1.771-12.225,7.11c-4.257,16.089-15.194,65.556-37.38,132.085
	C326.643,266.454,326.807,273.948,329.572,280.862z"/>
<g>
</g>
<g>
</g>
<g>
</g>
<g>
</g>
<g>
</g>
<g>
</g>
<g>
</g>
<g>
</g>
<g>
</g>
<g>
</g>
<g>
</g>
<g>
</g>
<g>
</g>
<g>
</g>
<g>
</g>
</svg>
